<?xml version="1.0" encoding="utf-8"?>
<!-- Generator: Adobe Illustrator 22.1.0, SVG Export Plug-In . SVG Version: 6.00 Build 0)  -->
<svg version="1.1" id="Layer_1" xmlns="http://www.w3.org/2000/svg" xmlns:xlink="http://www.w3.org/1999/xlink" x="0px" y="0px"
	 viewBox="0 0 841.9 595.3" style="enable-background:new 0 0 841.9 595.3;" xml:space="preserve">
<style type="text/css">
	.st0{fill:none;stroke:#000000;stroke-width:8;stroke-linecap:round;stroke-linejoin:round;stroke-miterlimit:10;}
</style>
<g>
	<path class="st0" d="M142.3,225.4c0,0,35.3,21.6,64.1-100.7s-54.6,86-6.9,60.7s74-81.7,74-81.7s-105.3,111.2-2.3,123.1
		c0,0,31.3,4.6,41-32.8s-24.7,46.3,14.7,35c39.3-11.3,74-143.1,74-143.1s-65.3,265.2,51.3,0c0,0-74.7,188.8,0,133.4
		c0,0,14.3-11.5,19.4-30.6s-25.5,40.4,14.1,38.1c0,0,8.9,0.8,11.1-12.3s3.5-37.8,18-26.5c0,0,10.3,6.3,0,42"/>
	<path class="st0" d="M519.3,201.5c0-10.4,3.5-21.3,13.5-14.5c0,0,8.5,2.6,0,36c0,0-2.2,10.5,6.4,7.1"/>
	<path d="M311.6,156.9l23.8,2.8l-20.2,12.8C309,176.4,294.7,159,311.6,156.9z"/>
	<path d="M469.9,159.5l23.8,2.8l-20.2,12.8C467.3,179,453.1,161.7,469.9,159.5z"/>
	<line class="st0" x1="294.9" y1="389.5" x2="232.2" y2="458.7"/>
	<path class="st0" d="M737.7,85.9c0,0-1174,440.4-442,301.4l-61-45"/>
	<path class="st0" d="M319.5,331.4c0,0-8.8,172,91.2-16c0,0-114,196-193,236"/>
	<circle cx="416.7" cy="404.1" r="10.4"/>
	<path class="st0" d="M427.7,319.9c0,0,28-7,32,18s-8.2,64.5,11.5,75.4c23.9,13.3,53.1-1.5,53.5-94.3c-0.3,3.5-24.4,113.9,14.4,95.9
		"/>
</g>
</svg>
